<?xml version="1.0" encoding="UTF-8" standalone="no"?>
<!-- Created with Inkscape (http://www.inkscape.org/) -->

<svg
   xmlns:dc="http://purl.org/dc/elements/1.1/"
   xmlns:cc="http://creativecommons.org/ns#"
   xmlns:rdf="http://www.w3.org/1999/02/22-rdf-syntax-ns#"
   xmlns:svg="http://www.w3.org/2000/svg"
   xmlns="http://www.w3.org/2000/svg"
   xmlns:sodipodi="http://sodipodi.sourceforge.net/DTD/sodipodi-0.dtd"
   xmlns:inkscape="http://www.inkscape.org/namespaces/inkscape"
   width="7.4248371mm"
   height="9.132266mm"
   viewBox="0 0 7.4248371 9.132266"
   version="1.1"
   id="svg36"
   inkscape:version="0.92.5 (2060ec1f9f, 2020-04-08)"
   sodipodi:docname="dexie-logo.svg">
  <defs
     id="defs30" />
  <sodipodi:namedview
     id="base"
     pagecolor="#ffffff"
     bordercolor="#666666"
     borderopacity="1.0"
     inkscape:pageopacity="0.0"
     inkscape:pageshadow="2"
     inkscape:zoom="7.9195959"
     inkscape:cx="27.67742"
     inkscape:cy="7.9752178"
     inkscape:document-units="mm"
     inkscape:current-layer="layer1"
     showgrid="false"
     fit-margin-top="0"
     fit-margin-left="0"
     fit-margin-right="0"
     fit-margin-bottom="0"
     inkscape:window-width="1920"
     inkscape:window-height="1016"
     inkscape:window-x="1600"
     inkscape:window-y="147"
     inkscape:window-maximized="1" />
  <metadata
     id="metadata33">
    <rdf:RDF>
      <cc:Work
         rdf:about="">
        <dc:format>image/svg+xml</dc:format>
        <dc:type
           rdf:resource="http://purl.org/dc/dcmitype/StillImage" />
        <dc:title></dc:title>
      </cc:Work>
    </rdf:RDF>
  </metadata>
  <g
     inkscape:label="Layer 1"
     inkscape:groupmode="layer"
     id="layer1"
     transform="translate(-62.109863,-168.21813)">
    <g
       transform="matrix(0.02332194,0,0,0.02332194,62.048146,168.04191)"
       id="Layer">
      <path
         style="fill:#4655ff"
         inkscape:connector-curvature="0"
         id="path1"
         d="m 320.87,123.97 c -2.38,-11.14999 -26.71997,-19.07001 -52.08002,-37.14999 -33,-23.54001 -16.94,-21 -32.14996,-45.65003 C 221.43,16.51999 193.00001,7.01001 176.06,7.57999 159.12,8.14999 137,8.16 114.63,44.29001 c -14.05001,22.69998 -16.91,46 -17.08999,60.13998 -0.07678,6.23246 -4.64163,11.49892 -10.80002,12.46001 -10.07999,1.57999 -25,4 -42.44998,11.50999 C 17.45999,139.97 17.88,148.29 5,192.16999 c -12.88,43.88 31.29999,94.99998 31.29999,94.99998 0,0 -2,16.65002 3.44,23.54004 5,6.31 2.78,20.09 4.58002,30.53 -2.42154,1.63303 -3.90003,4.33963 -3.96561,7.25961 -0.06561,2.91998 1.28986,5.69022 3.63559,7.43039 -0.96103,2.18893 -2.31699,4.18219 -4,5.87997 0,0 4.88001,-2 3.44,-0.57999 -1.44,1.41998 -5.73999,7.17999 -15.78998,17.79999 -10.05001,10.62 -1.43002,18.66 -1.43002,18.66 27,-15.22 62.29001,1.44 62.29001,1.44 0.29001,-15.51001 26.70001,-21.54001 26.70001,-21.54001 0,-6 -12.34002,-9.47 -12.34002,-9.47 0,0 -34.15998,-0.85999 -44.78998,-15.20999 -0.14002,-0.19 -0.26001,-0.39999 -0.4,-0.60001 0.4954,-1.13196 0.75077,-2.35434 0.75,-3.59 0.01212,-3.63693 -2.16592,-6.92371 -5.52002,-8.32999 C 49.07001,323.77996 51.47,301.80996 51.47,301.80996 c 20.38001,20.09 91.57999,18.66 91.57999,18.66 0,0 2.17999,4.09 -1.47998,9.41 -2.16687,1.65326 -3.51538,4.16074 -3.70001,6.88 v 0.05 c -0.0337,0.20203 -0.0571,0.40561 -0.07,0.61002 0.0159,0.44604 0.0627,0.89044 0.14001,1.32999 -1.64001,1.38 -12.71002,10.49002 -23.31001,14.73001 -11.48999,4.59 -14.07,10 -14.07,10 12.91998,-2 49.66998,16.94 49.66998,16.94 9.17999,-18.66 52,-12.06 52,-12.06 0,0 -0.57996,-3.73001 -6,-11.77002 -18.46997,-3.39999 -34.88995,-14.20999 -39.47998,-17.44998 0.10803,-0.58395 0.16492,-1.17618 0.16998,-1.77002 -0.008,-2.71542 -1.18079,-5.29691 -3.21997,-7.09 -0.87,-3 0.60999,-10.44 0.60999,-10.44 39.62,-20.09 68.90002,-39.00003 76.65002,-75.21001 7.75,-36.20999 -17.79004,-62.87 -27.84003,-80.67 -6.52997,-11.56 -17.52997,-21.06 -24.44,-26.29999 -5.48303,-4.05511 -8.73016,-10.46046 -8.76001,-17.28001 0.14001,-15.54 17.06,-13.45998 32.62,-17 18.95001,-4.30999 49.38,8.32001 49.67004,9.47002 0.28998,1.14999 21.52997,14.07 41.04999,12.91998 9.27002,-0.54999 15,1.56 18.41998,3.92001 4.32001,3.07999 10.32001,-0.56 9.19,-5.72 z" />
    </g>
    <circle
       style="fill:#ffffff;stroke-width:0.02332194"
       r="0.18657549"
       class="dark:hidden"
       cx="66.64257"
       cy="169.20801"
       id="svg_2" />
    <circle
       style="fill:#1e2937;stroke-width:0.02332194"
       r="0.27986324"
       class="hidden dark:inline-block"
       cx="66.64257"
       cy="169.20801"
       id="ellipse5" />
  </g>
</svg>
