<?xml version="1.0" encoding="UTF-8"?>
<svg width="400" height="400" version="1.1" xmlns="http://www.w3.org/2000/svg" xmlns:xlink="http://www.w3.org/1999/xlink">
 <g fill="none" stroke-linecap="round" stroke-width="8">
  <path d="m207.75 259.46v-53.962" stroke="#803300"/>
  <path d="m198.17 195.92h-53.962" stroke="#00c8d7"/>
  <path d="m271.29 195.92h-53.962" stroke="#f60"/>
  <path d="m207.75 186.34v-53.962" stroke="#f00"/>
 </g>
 <circle cx="207.74" cy="195.92" r="9.5788" fill="#fff"/>
 <circle cx="207.74" cy="195.92" r="9.5788" fill="none" stroke="#000"/>
 <circle id="c" cx="77.506" cy="195.92" r="30" fill="none" stroke="#000" stroke-width="2"/>
 <path d="m336.61 222.16c-3.3141-2.7174-6.5276-5.3523-8.8621-9.0409-2.3346-3.6887-3.7584-8.8859-2.9802-12.04 0.77835-3.1544 4.5699-7.2681 6.9661-10.167 2.3962-2.8991 4.3521-5.7395 5.0326-7.9234 0.68057-2.1839 0.76485-5.8905 0.63475-8.1566-0.13011-2.2661-0.46057-3.7038-0.79114-5.1413 1.0946 0.73645 2.1904 1.4738 3.4813 3.4534 1.291 1.9796 3.0742 5.8414 2.759 8.6261-0.3151 2.7848-3.0392 7.251-4.9105 10.305-1.8711 3.0542-3.6164 5.8835-4.2666 8.2951-0.65022 2.4116-0.79686 6.3492-0.55421 9.4262 0.24266 3.077 0.77608 5.0351 1.3571 7.1679 0.17002-2.7217 0.34014-5.4423 1.4614-7.6389 1.1212-2.1964 3.1933-3.8665 5.2113-5.8382 2.018-1.9716 4.3656-4.6889 5.026-6.6444 0.66038-1.9554 0.2919-4.9102-0.22945-7.2244-0.52148-2.3142-1.1528-4.0216-1.8197-5.8248 2.2928 1.3604 4.3468 2.579 5.8239 5.7824s1.876 7.8332 0.87922 10.884c-0.99683 3.0506-4.1207 6.1744-6.7262 8.0223s-5.0952 2.8221-6.3249 4.9569c-1.2296 2.1347-1.1987 5.4275-1.1678 8.7214z"/>
 <rect x="177.69" y="294.9" width="60" height="60" fill="none" stroke="#000" stroke-width="2"/>
 <path id="a" d="m183.62 324.9h48.138" stroke="#000" stroke-width="3.5145"/>
 <g id="f">
  <path id="b" d="m211 95.389c-4.5831-4.9766-6.8936-9.1193-6.8936-12.482 0-2.3634 1.3744-6.1092 4.0884-11.199 1.6642-3.1587 2.7408-5.411 3.2402-6.7631 0.49924-1.3521 0.76103-2.9643 0.76113-4.8277-1e-4 -3.5223-1.99-7.7074-5.9585-12.548" fill="none" stroke="#000" stroke-width="3.5144"/>
  <use transform="translate(8.0394)" xlink:href="#b"/>
  <use transform="translate(-8.0393)" xlink:href="#b"/>
 </g>
 <use transform="rotate(-90 205.03 199.03)" xlink:href="#f"/>
 <g id="d">
  <g id="e">
   <path d="m207.76 195.91v-86.235" fill="none" stroke="#000" stroke-width="1.7572"/>
   <path d="m199.29 125.12 8.4666-23.024 8.4666 23.024c-4.9987-3.6783-11.837-3.6572-16.933 0z" stroke="#000" stroke-linejoin="round"/>
  </g>
  <use transform="matrix(1,0,0,-1,0,391.83)" xlink:href="#e"/>
 </g>
 <use transform="rotate(-90 207.76 195.92)" xlink:href="#d"/>
 <use transform="translate(-4e-5,-8.9503)" xlink:href="#a"/>
 <use transform="translate(-4e-5,8.9503)" xlink:href="#a"/>
 <use transform="translate(260.46 .0058018)" xlink:href="#c"/>
 <g font-family="DejaVu Sans" font-size="30" font-weight="bold" text-anchor="middle">
  <text x="207" y="386">Erde</text>
  <text x="206" y="37">Luft</text>
  <text x="77" y="256">Wasser</text>
  <text x="336" y="256">Feuer</text>
 </g>
</svg>