<?xml version="1.0" encoding="UTF-8" standalone="no"?>
<!-- Created with Inkscape (http://www.inkscape.org/) -->

<svg
   xmlns:dc="http://purl.org/dc/elements/1.1/"
   xmlns:cc="http://creativecommons.org/ns#"
   xmlns:rdf="http://www.w3.org/1999/02/22-rdf-syntax-ns#"
   xmlns:svg="http://www.w3.org/2000/svg"
   xmlns="http://www.w3.org/2000/svg"
   xmlns:sodipodi="http://sodipodi.sourceforge.net/DTD/sodipodi-0.dtd"
   xmlns:inkscape="http://www.inkscape.org/namespaces/inkscape"
   width="16.032907mm"
   height="16.032907mm"
   viewBox="0 0 16.032908 16.032908"
   version="1.1"
   id="svg4022"
   inkscape:version="0.92.5 (2060ec1f9f, 2020-04-08)"
   sodipodi:docname="water.svg">
  <defs
     id="defs4016" />
  <sodipodi:namedview
     id="base"
     pagecolor="#ffffff"
     bordercolor="#666666"
     borderopacity="1.0"
     inkscape:pageopacity="0.0"
     inkscape:pageshadow="2"
     inkscape:zoom="7.9195959"
     inkscape:cx="33.803653"
     inkscape:cy="39.716666"
     inkscape:document-units="mm"
     inkscape:current-layer="layer2"
     showgrid="false"
     fit-margin-top="0"
     fit-margin-left="0"
     fit-margin-right="0"
     fit-margin-bottom="0"
     showguides="true"
     inkscape:guide-bbox="true"
     inkscape:window-width="1920"
     inkscape:window-height="1043"
     inkscape:window-x="3520"
     inkscape:window-y="120"
     inkscape:window-maximized="1">
    <sodipodi:guide
       position="-7.4835469,16"
       orientation="0,1"
       id="guide4052"
       inkscape:locked="false"
       inkscape:label=""
       inkscape:color="rgb(0,0,255)" />
  </sodipodi:namedview>
  <metadata
     id="metadata4019">
    <rdf:RDF>
      <cc:Work
         rdf:about="">
        <dc:format>image/svg+xml</dc:format>
        <dc:type
           rdf:resource="http://purl.org/dc/dcmitype/StillImage" />
        <dc:title></dc:title>
      </cc:Work>
    </rdf:RDF>
  </metadata>
  <g
     inkscape:label="Layer 1"
     inkscape:groupmode="layer"
     id="layer1"
     transform="translate(-44.478408,-193.92396)">
    <circle
       style="fill:#808080;stroke:#000000;stroke-width:0.51719046"
       id="c"
       cx="52.494862"
       cy="201.94041"
       r="7.7578583" />
  </g>
  <g
     inkscape:groupmode="layer"
     id="layer2"
     inkscape:label="Layer 2">
    <g
       style="stroke:#0000ff"
       transform="matrix(0,-0.25595596,0.25595596,0,-10.214267,61.11652)"
       id="use28">
      <path
         style="fill:none;stroke:#0000ff;stroke-width:3.51440001"
         inkscape:connector-curvature="0"
         d="m 211,95.389 c -4.5831,-4.9766 -6.8936,-9.1193 -6.8936,-12.482 0,-2.3634 1.3744,-6.1092 4.0884,-11.199 1.6642,-3.1587 2.7408,-5.411 3.2402,-6.7631 0.49924,-1.3521 0.76103,-2.9643 0.76113,-4.8277 -1e-4,-3.5223 -1.99,-7.7074 -5.9585,-12.548"
         id="path4036" />
      <path
         style="fill:none;stroke:#0000ff;stroke-width:3.51440001"
         inkscape:connector-curvature="0"
         d="m 219.0394,95.389 c -4.5831,-4.9766 -6.8936,-9.1193 -6.8936,-12.482 0,-2.3634 1.3744,-6.1092 4.0884,-11.199 1.6642,-3.1587 2.7408,-5.411 3.2402,-6.7631 0.49924,-1.3521 0.76103,-2.9643 0.76113,-4.8277 -1e-4,-3.5223 -1.99,-7.7074 -5.9585,-12.548"
         id="use4038" />
      <path
         style="fill:none;stroke:#0000ff;stroke-width:3.51440001"
         inkscape:connector-curvature="0"
         d="m 202.9607,95.389 c -4.5831,-4.9766 -6.8936,-9.1193 -6.8936,-12.482 0,-2.3634 1.3744,-6.1092 4.0884,-11.199 1.6642,-3.1587 2.7408,-5.411 3.2402,-6.7631 0.49924,-1.3521 0.76103,-2.9643 0.76113,-4.8277 -1e-4,-3.5223 -1.99,-7.7074 -5.9585,-12.548"
         id="use4040" />
    </g>
  </g>
</svg>
